<svg id="图层_1" data-name="图层 1" xmlns="http://www.w3.org/2000/svg" viewBox="0 0 716.31 799.44"><defs><style>.cls-1{fill:#666;}.cls-2{fill:#383838;}.cls-3{fill:#dcb57c;}</style></defs><path class="cls-1" d="M568.35,640.49a82.9,82.9,0,0,1-1.92-17.67A82.08,82.08,0,0,1,648,540.75L544.73,483.63,448.81,657h0l.05-.09Z" transform="translate(-352.88 -298.08)"/><path class="cls-2" d="M607.06,693.67a82.2,82.2,0,0,1-38.69-53.1L448.81,657,352.88,830.38l226.46-86.6Z" transform="translate(-352.88 -298.08)"/><path class="cls-2" d="M568.35,640.49,448.86,656.91l-.05.09,119.56-16.43A.24.24,0,0,0,568.35,640.49Z" transform="translate(-352.88 -298.08)"/><path class="cls-2" d="M722.35,403.36,544.53,483.52l.2.11L648,540.75l.55,0a82.09,82.09,0,0,1,69.62,38.61l177.58-80.05Z" transform="translate(-352.88 -298.08)"/><path class="cls-1" d="M718.19,579.41l.18.29,173,95.72,177.81-80.15-173.47-96h0l.1,0Z" transform="translate(-352.88 -298.08)"/><path class="cls-1" d="M718.19,579.41l177.63-80.07-.1,0L718.14,579.34Z" transform="translate(-352.88 -298.08)"/><polygon class="cls-1" points="415.85 373.27 226.45 445.7 0 532.3 193.23 505.75 193.24 505.73 563.3 454.85 415.85 373.27"/><polygon class="cls-2" points="350.8 95.71 177.82 0 0 80.16 0.03 80.17 350.8 95.71"/><polygon class="cls-1" points="173.47 176.13 351.29 95.98 350.8 95.71 0.03 80.17 173.47 176.13"/><path class="cls-3" d="M427.35,1029a13,13,0,0,0-4.86-3.67,14.39,14.39,0,0,0-5.68-1.18,13.34,13.34,0,0,0-5.53,1.18,14.27,14.27,0,0,0-4.81,3.67l-48.16,57.16a6.47,6.47,0,0,0-1.55,4,4.87,4.87,0,0,0,.83,2.79,8.61,8.61,0,0,0,2.17,2.22,11.77,11.77,0,0,0,3.05,1.6,9.57,9.57,0,0,0,3.35.62,10.34,10.34,0,0,0,3.83-.77,8,8,0,0,0,3.31-2.43l12.92-15.3h61.49L460.53,1094a9.43,9.43,0,0,0,3.41,2.54,10.74,10.74,0,0,0,4.13.77,10.11,10.11,0,0,0,3.31-.57,9.52,9.52,0,0,0,2.89-1.55,11.43,11.43,0,0,0,2.12-2.17,4.62,4.62,0,0,0,.88-2.84,6.32,6.32,0,0,0-.52-3.1Zm-31.83,36.69,21.49-26,21,26Z" transform="translate(-352.88 -298.08)"/><path class="cls-3" d="M590,1039.64q-9,0-9,6.82v32.45q0,4.86-15.91,4.86H541.14q-16.53,0-16.54-5.06v-32.25q0-7-8.83-7t-8.84,7v33q0,17.57,36.07,17.57h20q35.55,0,35.56-17.57v-33Q598.61,1039.64,590,1039.64Z" transform="translate(-352.88 -298.08)"/><path class="cls-3" d="M718.49,1024.24q-8.67,0-8.68,7v9.2h-40q-35,0-35,18.39v21.4q0,16.74,35,16.74h21.81q35.65,0,35.66-17.67v-48.06Q727.28,1024.23,718.49,1024.24Zm-8.68,54q0,5.58-16.3,5.58H666.79q-14.34,0-14.34-5.58V1060.1q0-6.3,15-6.3h42.4Z" transform="translate(-352.88 -298.08)"/><path class="cls-3" d="M770.38,1045.53q-8.58,0-8.58,6.82v38.14q0,7,8.68,7t8.68-7v-38.14Q779.16,1045.53,770.38,1045.53Z" transform="translate(-352.88 -298.08)"/><path class="cls-3" d="M770.07,1024.24q-10.65,0-10.65,7t10.34,7h.31q11.05,0,11.06-7T770.07,1024.24Z" transform="translate(-352.88 -298.08)"/><path class="cls-3" d="M855,1040.47H834.66v-9.2q0-7-8.68-7t-8.78,7v9.2h-2.79q-8,0-8,6.61t8,6.62h2.79v36.79c0,4.68,2.85,7,8.58,7q8.88,0,8.88-7V1053.7H855q7.65,0,7.65-6.62T855,1040.47Z" transform="translate(-352.88 -298.08)"/><path class="cls-3" d="M945.35,1040.47H922q-34.21,0-34.21,18.7v19.54q0,18.29,33.9,18.29h23.66q33,0,33-18.29v-19.64Q978.32,1040.47,945.35,1040.47Zm15.3,38q0,5.26-13.36,5.27H920.37q-14.91,0-14.91-5.27v-19.12q0-5.69,14.81-5.68h26.61q13.77,0,13.77,4.85Z" transform="translate(-352.88 -298.08)"/><path class="cls-3" d="M1052,1040.47h-5.16q-32.77,0-32.77,18.19v31.83q0,7,9.1,7,8.58,0,8.58-7v-31.83q0-5,13.85-5h7.23q6.72,0,6.72-6.62T1052,1040.47Z" transform="translate(-352.88 -298.08)"/><path class="cls-3" d="M726.65,628a70,70,0,1,0-139.38,9.9.25.25,0,0,1,0,.08,70,70,0,0,0,139.37-10Zm-92.37,16.47a67.45,67.45,0,0,0,1.32-13.13v-.08a67.94,67.94,0,0,0-11-37.17,67.93,67.93,0,0,0,68.33-3.4h0a67.87,67.87,0,0,0,3.4,68.33,67.91,67.91,0,0,0-68.33,3.4A67.79,67.79,0,0,0,634.28,644.46Z" transform="translate(-352.88 -298.08)"/><polygon class="cls-2" points="3.67 593.52 46.04 593.52 46.04 677.16 74.91 677.16 74.91 593.52 117.28 593.52 117.28 569.67 3.67 569.67 3.67 593.52"/><path class="cls-2" d="M608.72,876.93a34.32,34.32,0,0,0-11.93-6.83,46.91,46.91,0,0,0-15.22-2.35H543.12a47,47,0,0,0-15.22,2.35,33.38,33.38,0,0,0-11.84,6.83,30.55,30.55,0,0,0-7.69,11,38.14,38.14,0,0,0-2.75,15v37.18a38.76,38.76,0,0,0,2.75,15.07,30.43,30.43,0,0,0,7.69,11.06A32.64,32.64,0,0,0,527.9,973a48.66,48.66,0,0,0,15.22,2.27h38.45A48.61,48.61,0,0,0,596.79,973a33.54,33.54,0,0,0,11.93-6.75,30.12,30.12,0,0,0,7.76-11.06,38.94,38.94,0,0,0,2.75-15.07V902.9a38.32,38.32,0,0,0-2.75-15A30.23,30.23,0,0,0,608.72,876.93Zm-18.37,60.8q0,6.75-3.52,10.2t-10.13,3.45H548.15q-6.6,0-10.13-3.45t-3.53-10.2V905.25q0-6.75,3.53-10.2t10.13-3.45H576.7q6.6,0,10.13,3.45t3.52,10.2Z" transform="translate(-352.88 -298.08)"/><polygon class="cls-2" points="379.17 569.67 331.62 611.57 326.77 611.57 326.77 567.83 298.06 567.83 298.06 677.16 326.77 677.16 326.77 635.42 331.62 635.42 379.01 677.16 416.2 677.16 359.24 623.49 416.35 569.67 379.17 569.67"/><rect class="cls-2" x="447.11" y="569.67" width="102.62" height="23.85"/><polygon class="cls-2" points="669.93 569.67 669.93 636.36 614.54 569.67 585.2 569.67 585.2 677.16 614.07 677.16 614.07 610.47 669.62 677.16 698.8 677.16 698.8 569.67 669.93 569.67"/><polygon class="cls-2" points="447.11 611.57 447.11 635.42 447.11 653.31 447.11 674.7 447.11 677.16 549.73 677.16 549.73 653.31 471.37 653.31 471.37 635.42 549.73 635.42 549.73 611.57 471.37 611.57 447.11 611.57"/></svg>